# xmcd
#
# Track frame offsets:
#	150
#	25850
#	48110
#	69780
#	91680
#	116310
#
# Disc length: 1897 seconds
#
# Revision: 2
# Processed by: cddbd v1.5.2PL0 Copyright (c) Steve Scherf et al.
# Submitted via: EZCDAudioConverter 3.0.8.1
#
DISCID=36076706
DTITLE=Various Artist - FESTIVAL FUNK AO VIVO-1995
DYEAR=1995
DGENRE=funk
TTITLE0=DANDA and TAFAREL - RAP DO FESTIVAL AO VIVO 
TTITLE1=MASCOTE - PARE DE BRIGAR AO VIVO 
TTITLE2=MARCELO and PULUNGA - RAP DO TREM AO VIVO
TTITLE3=MARCELO and PADILHA - RAP DO CURRAL AO VIVO 
TTITLE4=GALO - RAP DAS MONTAGENS (HISTORIA DO FUNK) 
TTITLE5=MARCELO and PADILHA - RAP DA DESILUSÃO (MARCELA)
EXTD=
EXTT0=
EXTT1=
EXTT2=
EXTT3=
EXTT4=
EXTT5=
PLAYORDER=
